# xmcd
#
# Track frame offsets:
#	150
#	26442
#	46965
#	70012
#	94860
#	116357
#	142305
#	169307
#	191472
#
# Disc length: 2618 seconds
#
# Revision: 9
# Processed by: cddbd v1.5.1PL2 Copyright (c) Steve Scherf et al.
# Submitted via: audiograbber 1.83.01
#
DISCID=790a3809
DTITLE=Arun Date - Shabdhamala
DYEAR=1900
DGENRE=
TTITLE0=Shabdhamala Puresha Na Hoti
TTITLE1=Dur Kuthe Chandanadhe
TTITLE2=Ekada Has Tu
TTITLE3=Ushhakal Hota Hota
TTITLE4=Geet Aasavale Tuzyasathi
TTITLE5=He Phul Tu Dilele
TTITLE6=Payakhali Asun Late
TTITLE7=Saye Paha Dhagavari
TTITLE8=Ads
EXTD=
EXTT0=
EXTT1=
EXTT2=
EXTT3=
EXTT4=
EXTT5=
EXTT6=
EXTT7=
EXTT8=
PLAYORDER=
